<svg width="312.6" height="118.84" version="1.1" viewBox="0 0 82.709 31.443" xmlns="http://www.w3.org/2000/svg">
 <path d="m2.4693-2.7057e-4c-1.3679 0-2.4693 1.1012-2.4693 2.4691v26.505c0 1.3679 1.1014 2.4691 2.4693 2.4691h26.505c1.3679 0 2.4691-1.1012 2.4691-2.4691v-26.505c0-1.3679-1.1012-2.4691-2.4691-2.4691zm21.463 14.269c1.8786 0 3.2293 0.6539 4.2025 2.3658l-2.3009 1.4772c-0.50659-0.90836-1.0532-1.2661-1.9016-1.2661-0.86544 0-1.4139 0.54892-1.4139 1.2661 0 0.88641 0.54904 1.2454 1.8168 1.7944l0.73861 0.31645c2.5105 1.0766 3.9279 2.1741 3.9279 4.6417 0 2.6602-2.0897 4.1175-4.8962 4.1175-2.7441 0-4.5169-1.3076-5.3843-3.0215l2.4012-1.395c0.63336 1.0341 1.4573 1.7942 2.9147 1.7942 1.2243 0 2.0065-0.61196 2.0065-1.4574 0-1.0132-0.80366-1.3719-2.1512-1.9613l-0.73861-0.31697c-2.1322-0.90837-3.5486-2.0463-3.5486-4.452 0-2.216 1.6884-3.9031 4.3272-3.9031zm-9.7629 0.16872h2.9548v10.087c0 3.0595-1.7938 4.4519-4.412 4.4519-2.3657 0-3.7358-1.2243-4.4325-2.6989l2.405-1.4562c0.46417 0.82352 0.88648 1.5199 1.9017 1.5199 0.97075 0 1.5831-0.37983 1.5831-1.8567z" fill="#fff" fill-opacity=".95849"/>
 <text x="33.365761" y="26.371046" fill="#ffffff" font-family="sans-serif" font-size="13.691px" letter-spacing="0px" stroke-width=".34228" word-spacing="0px" style="line-height:1.25" xml:space="preserve"><tspan x="33.365761" y="26.371046" fill="#ffffff" font-family="Inter" font-weight="bold" stroke-width=".34228">FORUM</tspan></text>
</svg>
