<svg enable-background="new 0 0 512 512" version="1.1" viewBox="0 0 512 512" xml:space="preserve" xmlns="http://www.w3.org/2000/svg">
	<path d="m437.33 192h-32v-42.667c0-82.343-66.989-149.33-149.33-149.33s-149.33 66.99-149.33 149.33v42.667h-32c-5.896 0-10.667 4.771-10.667 10.667v266.67c0 23.531 19.135 42.666 42.667 42.666h298.67c23.531 0 42.666-19.135 42.666-42.667v-266.67c0-5.896-4.771-10.667-10.667-10.667zm-149.4 222.82c0.333 3.01-0.635 6.031-2.656 8.292-2.021 2.26-4.917 3.552-7.948 3.552h-42.667c-3.031 0-5.927-1.292-7.948-3.552s-2.99-5.281-2.656-8.292l6.729-60.51c-10.927-7.948-17.458-20.521-17.458-34.313 0-23.531 19.135-42.667 42.667-42.667s42.667 19.135 42.667 42.667c0 13.792-6.531 26.365-17.458 34.313l6.728 60.51zm53.395-222.82h-170.67v-42.667c0-47.052 38.281-85.333 85.333-85.333s85.333 38.281 85.333 85.333v42.667z" fill="#fff"/>
	</svg>
