<svg width="94.127mm" height="85.416mm" version="1.1" viewBox="0 0 94.127 85.416" xmlns="http://www.w3.org/2000/svg">
 <g transform="translate(484 -7.8517)">
  <g transform="translate(-542.11 -97.931)" fill="#000">
   <g transform="matrix(.75573 0 0 1 -9.6106 -131.08)" fill="#000">
    <g transform="translate(-31.689 58.538)" fill="#000">
     <g fill="#fff">
      <path transform="matrix(.3501 0 0 .26458 44.406 72.544)" d="m241.06 539.81a21.451 21.451 0 0 0-21.449 21.451 21.451 21.451 0 0 0 21.449 21.451 21.451 21.451 0 0 0 1.5859-0.0625c0.38815 0.0365 0.77842 0.0605 1.1738 0.0605h306.05c0.43325 0 0.86068-0.0285 1.2852-0.0723a21.451 21.451 0 0 0 1.4746 0.0742 21.451 21.451 0 0 0 21.449-21.451 21.451 21.451 0 0 0-21.449-21.451 21.451 21.451 0 0 0-1.5859 0.0625c-0.38815-0.0365-0.77842-0.0605-1.1738-0.0605h-306.05c-0.43325 0-0.86068 0.0285-1.2852 0.0723a21.451 21.451 0 0 0-1.4746-0.0742z" style="paint-order:normal"/>
      <path d="m128.8 178.33a7.51 5.6755 0 0 0-7.5095 5.6756 7.51 5.6755 0 0 0 7.5095 5.6756 7.51 5.6755 0 0 0 0.55525-0.0165c0.13589 0.01 0.27253 0.016 0.41096 0.016h107.15c0.15168 0 0.30133-7e-3 0.44994-0.0191a7.51 5.6755 0 0 0 0.51627 0.0196 7.51 5.6755 0 0 0 7.5094-5.6756 7.51 5.6755 0 0 0-7.5094-5.6756 7.51 5.6755 0 0 0-0.55525 0.0165c-0.13589-0.01-0.27253-0.016-0.41096-0.016h-107.15c-0.15168 0-0.30133 8e-3 -0.44994 0.0191a7.51 5.6755 0 0 0-0.51627-0.0196z" style="paint-order:normal"/>
      <path d="m129.25 252.39a7.51 5.6755 0 0 0-7.5095 5.6756 7.51 5.6755 0 0 0 7.5095 5.6756 7.51 5.6755 0 0 0 0.55525-0.0165c0.13589 0.01 0.27253 0.016 0.41096 0.016h107.15c0.15168 0 0.30133-7e-3 0.44994-0.0191a7.51 5.6755 0 0 0 0.51627 0.0196 7.51 5.6755 0 0 0 7.5094-5.6756 7.51 5.6755 0 0 0-7.5094-5.6756 7.51 5.6755 0 0 0-0.55525 0.0165c-0.13589-0.01-0.27253-0.016-0.41096-0.016h-107.15c-0.15168 0-0.30133 8e-3 -0.44994 0.0191a7.51 5.6755 0 0 0-0.51627-0.0196z" style="paint-order:normal"/>
     </g>
    </g>
   </g>
  </g>
 </g>
</svg>
