<svg width="101.9mm" height="106.17mm" version="1.1" viewBox="0 0 101.9 106.17" xmlns="http://www.w3.org/2000/svg">
 <path transform="scale(.26458)" d="m165.39 0c-91.045 0-165.4 74.346-165.4 165.39 0 91.045 74.354 165.4 165.4 165.4 32.396 0 62.674-9.4202 88.246-25.65l88.566 88.566a25.003 25.003 0 1 0 35.357-35.359l-86.119-86.119c24.516-28.864 39.348-66.183 39.348-106.84 0-91.045-74.354-165.39-165.4-165.39zm0 50.803c63.588 0 114.59 51 114.59 114.59 0 63.588-51.002 114.6-114.59 114.6-63.588 0-114.59-51.01-114.59-114.6 0-63.588 51-114.59 114.59-114.59z" color="#000000" color-rendering="auto" dominant-baseline="auto" fill="#fff" image-rendering="auto" shape-rendering="auto" solid-color="#000000" style="font-feature-settings:normal;font-variant-alternates:normal;font-variant-caps:normal;font-variant-ligatures:normal;font-variant-numeric:normal;font-variant-position:normal;isolation:auto;mix-blend-mode:normal;shape-padding:0;text-decoration-color:#000000;text-decoration-line:none;text-decoration-style:solid;text-indent:0;text-orientation:mixed;text-transform:none;white-space:normal"/>
</svg>
